# xmcd CD database file
#
# Track frame offsets:
#	150
#	19071
#	40596
#	59517
#
# Disc length: 1078 seconds
#
# Revision: 0
# Processed by: cddbd v1.5.1PL2 Copyright (c) Steve Scherf et al.
# Submitted via: CDex 1.60beta1
#
DISCID=2a043404
DTITLE=So-death! - Beast:Bullet Theme song CD
DYEAR=1900
DGENRE=ポップ (一般)
TTITLE0=Beast:Bullet -紅闇の柘榴-
TTITLE1=たった今、生まれる世界。
TTITLE2=Beast;Bullet -紅闇の柘榴- (off Vocal)
TTITLE3=たった今、生まれる世界。 (off Vocal)
EXTD=
EXTT0=
EXTT1=
EXTT2=
EXTT3=
PLAYORDER=
